<svg width="100" height="50" viewBox="0 0 100 50" fill="none" xmlns="http://www.w3.org/2000/svg">
<path d="M10.0463 15.8341C10.0463 15.8341 -0.116835 9.01989 0.790759 4.76827C1.69835 0.516648 8.79409 6.03987 8.79409 6.03987C8.79409 6.03987 11.7304 -1.76933 15.0453 1.44851C18.3602 4.66634 10.0463 15.8341 10.0463 15.8341Z" fill="#B93D43"/>
<path d="M10.4103 15.2031C7.49825 13.2278 4.23674 10.7671 2.3536 7.72881C1.83428 6.88917 1.12083 5.6661 1.59646 4.66629C2.208 3.38983 3.74654 4.00137 4.76576 4.43818C6.07324 5.02816 7.30246 5.77808 8.42526 6.67076C8.8378 6.98138 9.35227 6.61738 9.49787 6.23395C10.056 4.77792 10.9102 2.93361 12.1576 1.96292C13.3224 1.05533 14.6716 1.47758 15.0211 2.99185C15.2492 3.98681 14.8803 5.1662 14.5843 6.09806C13.5262 9.45179 11.4878 12.6405 9.41536 15.4652C8.86207 16.2223 10.124 16.9504 10.6724 16.1981C11.9686 14.4282 13.1364 12.5679 14.1669 10.6312C15.3754 8.36462 17.0159 5.29239 16.4237 2.60358C15.9432 0.477767 13.6573 -0.725887 11.7305 0.477768C9.92983 1.59891 8.81839 3.93342 8.09523 5.85053L9.16298 5.41857C6.96923 3.72472 -0.640975 -0.221128 0.0433609 5.81656C0.528706 10.2963 6.24606 14.1402 9.67745 16.4553C10.454 16.9795 11.1869 15.7273 10.4103 15.2031Z" fill="#B93D43"/>
<path d="M35.1186 22.9494L1.30948 21.8331C1.00633 21.8232 0.718525 21.6974 0.505411 21.4816C0.292297 21.2658 0.170117 20.9764 0.164062 20.6732V14.8053C0.164063 14.6498 0.194694 14.4958 0.254207 14.3521C0.313721 14.2085 0.400952 14.0779 0.510919 13.9679C0.620886 13.858 0.751435 13.7708 0.895114 13.7112C1.03879 13.6517 1.19279 13.6211 1.3483 13.6211H35.1526C35.3081 13.6211 35.4621 13.6517 35.6057 13.7112C35.7494 13.7708 35.88 13.858 35.9899 13.9679C36.0999 14.0779 36.1871 14.2085 36.2467 14.3521C36.3062 14.4958 36.3368 14.6498 36.3368 14.8053V21.7652C36.3369 21.9236 36.3051 22.0804 36.2435 22.2264C36.1819 22.3723 36.0916 22.5044 35.978 22.6148C35.8644 22.7252 35.7298 22.8117 35.5822 22.8692C35.4346 22.9267 35.2769 22.954 35.1186 22.9494Z" fill="#FE9F8D"/>
<path d="M35.4299 26.3999L0.834572 25.9534C0.688231 25.9508 0.548746 25.8909 0.446163 25.7865C0.343581 25.6821 0.286111 25.5416 0.286133 25.3952V23.9877C0.286087 23.9134 0.301016 23.8398 0.330027 23.7714C0.359039 23.703 0.401539 23.6411 0.454991 23.5895C0.508443 23.5378 0.571751 23.4975 0.641137 23.4708C0.710522 23.4442 0.784563 23.4318 0.85884 23.4344L35.4639 24.4828C35.6789 24.4879 35.8833 24.5772 36.0331 24.7315C36.1829 24.8858 36.2661 25.0928 36.2647 25.3079V25.5796C36.2647 25.6886 36.2431 25.7965 36.2009 25.8969C36.1588 25.9974 36.0971 26.0885 36.0194 26.1648C35.9417 26.2412 35.8495 26.3013 35.7483 26.3417C35.6471 26.382 35.5389 26.4018 35.4299 26.3999Z" fill="#FFD3AC"/>
<path d="M35.1768 33.9667L1.35316 34.6413C1.19857 34.6446 1.04488 34.617 0.901066 34.5602C0.757249 34.5034 0.626178 34.4185 0.515496 34.3106C0.404814 34.2026 0.316737 34.0737 0.2564 33.9313C0.196062 33.7889 0.164673 33.636 0.164062 33.4814V29.288C0.170412 28.982 0.296444 28.6907 0.515117 28.4765C0.73379 28.2624 1.02768 28.1425 1.33374 28.1426H35.1526C35.4611 28.1439 35.7566 28.267 35.9748 28.4852C36.193 28.7033 36.3161 28.9989 36.3174 29.3074V32.8019C36.3162 33.1063 36.1964 33.3982 35.9835 33.6157C35.7705 33.8332 35.4811 33.9591 35.1768 33.9667Z" fill="#FE9F8D"/>
<path d="M35.376 38.7134H1.09131C0.859519 38.7147 0.636497 38.6249 0.470343 38.4632C0.304188 38.3016 0.208215 38.0812 0.203125 37.8494V37.3641C0.206836 37.1357 0.298898 36.9176 0.459982 36.7556C0.621066 36.5936 0.838645 36.5003 1.06704 36.4953L35.3518 35.6897C35.47 35.6871 35.5876 35.7081 35.6976 35.7516C35.8077 35.7951 35.9079 35.8601 35.9924 35.9428C36.077 36.0256 36.1441 36.1244 36.19 36.2334C36.2358 36.3425 36.2594 36.4596 36.2594 36.5778V37.8494C36.2543 38.0803 36.159 38.3001 35.9939 38.4615C35.8288 38.623 35.607 38.7134 35.376 38.7134Z" fill="#FFD3AC"/>
<path d="M34.9447 49.5704L1.57242 49.0851C1.19133 49.0774 0.828416 48.9207 0.561624 48.6484C0.294831 48.3762 0.145432 48.0102 0.145508 47.629V42.4116C0.145373 42.032 0.293435 41.6675 0.558152 41.3955C0.82287 41.1235 1.18332 40.9657 1.56271 40.9555L34.9447 40.3052C35.3309 40.3052 35.7012 40.4586 35.9743 40.7316C36.2473 41.0047 36.4007 41.375 36.4007 41.7612V48.1289C36.3969 48.5126 36.2418 48.8792 35.9692 49.1491C35.6965 49.419 35.3284 49.5704 34.9447 49.5704Z" fill="#FE9F8D"/>
<path d="M53.7515 27.4918C54.135 27.4918 54.3242 27.7005 54.3242 28.113C54.3242 28.5256 54.135 28.7294 53.7515 28.7294H51.2035C51.1274 28.7302 51.052 28.7146 50.9825 28.6836C50.9129 28.6526 50.8509 28.607 50.8006 28.5498C50.7456 28.4915 50.7028 28.4229 50.6744 28.3479C50.6461 28.273 50.6329 28.1931 50.6356 28.113C50.6356 27.7005 50.8249 27.4918 51.2035 27.4918H51.7762V18.4935H46.0637V27.4918H46.6364C47.015 27.4918 47.2042 27.7005 47.2042 28.113C47.2042 28.5256 47.015 28.7294 46.6364 28.7294H44.0883C43.7049 28.7294 43.5156 28.5256 43.5156 28.113C43.5156 27.7005 43.7049 27.4918 44.0883 27.4918H44.7047V14.8049H44.1126C43.7146 14.8049 43.5156 14.5913 43.5156 14.1739C43.5156 13.7565 43.7146 13.543 44.1126 13.543H46.6607C47.0392 13.543 47.2285 13.7517 47.2285 14.1739C47.2285 14.5962 47.0392 14.8049 46.6607 14.8049H46.0637V17.3529H51.7762V14.8049H51.1792C50.8006 14.8049 50.6114 14.5913 50.6114 14.1739C50.6114 13.7565 50.8006 13.543 51.1792 13.543H53.7273C54.1253 13.543 54.3242 13.7517 54.3242 14.1739C54.3242 14.5962 54.1253 14.8049 53.7273 14.8049H53.1352V27.4918H53.7515Z" fill="#B93D43"/>
<path d="M59.7747 28.9676C59.1023 28.9861 58.4354 28.8423 57.8305 28.5483C57.2256 28.2543 56.7004 27.8187 56.2996 27.2786C55.3876 26.0317 54.9256 24.5123 54.9892 22.9687C54.9216 21.4486 55.3622 19.9493 56.2414 18.7074C56.6163 18.187 57.1122 17.7657 57.6864 17.4799C58.2605 17.1941 58.8957 17.0523 59.5369 17.0669C60.1958 17.0649 60.8442 17.232 61.42 17.5523C61.9353 17.8285 62.3764 18.2247 62.7062 18.7074C63.2887 19.4805 63.6267 20.4101 63.6769 21.3768C63.6769 21.8185 63.4682 22.0417 63.0556 22.0417H56.3724C56.3341 22.3345 56.3179 22.6298 56.3239 22.9251C56.2653 24.1941 56.6047 25.4498 57.2946 26.5166C57.5509 26.9414 57.9114 27.2937 58.3421 27.54C58.7727 27.7863 59.2592 27.9185 59.7553 27.9241C60.1715 27.9286 60.5794 27.8068 60.925 27.5747C61.2113 27.4024 61.4618 27.1767 61.6627 26.9097C61.8418 26.6302 62.0039 26.3401 62.148 26.041C62.2053 25.8855 62.3073 25.7505 62.4412 25.6529C62.5751 25.5553 62.7348 25.4995 62.9003 25.4925C63.3857 25.4925 63.6138 25.7061 63.6138 26.138C63.6138 26.6913 63.2595 27.3077 62.5557 27.9823C61.7944 28.6639 60.7952 29.0179 59.7747 28.9676ZM61.42 18.9938C61.1889 18.7227 60.9025 18.5042 60.58 18.3528C60.2576 18.2015 59.9065 18.1208 59.5503 18.1162C59.1941 18.1116 58.8411 18.1832 58.5148 18.3262C58.1886 18.4692 57.8966 18.6802 57.6586 18.9452C57.1745 19.4841 56.8237 20.1291 56.6345 20.8284H62.2742C62.1877 20.1427 61.889 19.5013 61.42 18.9938Z" fill="#B93D43"/>
<path d="M68.1326 17.0185C68.7289 16.9862 69.3248 17.0895 69.8754 17.3207C70.426 17.5519 70.9171 17.9049 71.3116 18.3532C72.0879 19.3111 72.4898 20.5185 72.4425 21.7506C72.3969 23.2349 72.4765 24.7205 72.6803 26.1915C72.764 26.8297 73.0866 27.4125 73.583 27.8222C73.6963 27.8577 73.7961 27.9268 73.8689 28.0205C73.9418 28.1142 73.9843 28.2279 73.9907 28.3464C73.9907 28.7589 73.7966 28.9628 73.418 28.9628C73.2075 28.9572 73.0005 28.9072 72.8106 28.816C72.6208 28.7248 72.4523 28.5946 72.3163 28.4338C71.9578 28.0517 71.6776 27.6033 71.4912 27.1136C71.1935 27.6679 70.744 28.1258 70.1953 28.4338C69.547 28.8024 68.8103 28.987 68.0647 28.9676C67.5232 28.9899 66.9829 28.901 66.4771 28.7065C65.9713 28.512 65.5106 28.216 65.1235 27.8368C64.7479 27.4601 64.4537 27.0103 64.2592 26.5152C64.0646 26.0201 63.9739 25.4903 63.9926 24.9587C63.9822 24.4059 64.0824 23.8566 64.2875 23.3432C64.4925 22.8297 64.7982 22.3625 65.1866 21.969C65.5655 21.5663 66.0249 21.248 66.535 21.0348C67.0451 20.8215 67.5945 20.7181 68.1472 20.7313C68.6944 20.7162 69.239 20.8116 69.7486 21.0117C70.2581 21.2118 70.722 21.5127 71.1126 21.8962C71.1463 20.9153 70.8988 19.9453 70.3992 19.1006C70.1721 18.7325 69.8508 18.4318 69.4686 18.2295C69.0863 18.0273 68.6569 17.9309 68.2248 17.9503C67.2542 17.9503 66.6232 18.2221 66.3708 18.7608C66.4948 19.0229 66.5673 19.3063 66.5844 19.5956C66.5671 19.8578 66.4668 20.1077 66.298 20.3091C66.2208 20.4251 66.1162 20.5203 65.9934 20.5863C65.8707 20.6523 65.7336 20.6871 65.5943 20.6877C65.4642 20.6917 65.3353 20.661 65.221 20.5987C65.1067 20.5364 65.0111 20.4449 64.9439 20.3334C64.7816 20.0858 64.6987 19.7945 64.7061 19.4986C64.7152 19.15 64.8082 18.8088 64.9771 18.5038C65.1461 18.1988 65.3861 17.939 65.6768 17.7465C66.3907 17.2354 67.2556 16.979 68.1326 17.0185ZM65.3225 24.8519C65.3123 25.2578 65.3854 25.6614 65.5374 26.0379C65.6893 26.4144 65.9168 26.7557 66.2058 27.0408C66.4778 27.3241 66.8051 27.5482 67.1675 27.6994C67.5299 27.8505 67.9196 27.9254 68.3122 27.9193C68.6957 27.9284 69.0769 27.8581 69.4319 27.7127C69.7868 27.5674 70.1079 27.3502 70.3749 27.0748C70.6456 26.8058 70.8592 26.4848 71.0026 26.1312C71.1461 25.7775 71.2165 25.3985 71.2097 25.0169V24.8034C71.2221 24.4095 71.1521 24.0174 71.0041 23.6522C70.8562 23.287 70.6336 22.9567 70.3506 22.6824C70.0738 22.4064 69.7441 22.1889 69.3814 22.043C69.0187 21.8971 68.6303 21.8257 68.2394 21.8331C67.8528 21.8225 67.4683 21.892 67.1099 22.0374C66.7516 22.1827 66.4272 22.4007 66.1573 22.6776C65.876 22.9631 65.6567 23.3035 65.513 23.6777C65.3694 24.0518 65.3045 24.4516 65.3225 24.8519Z" fill="#B93D43"/>
<path d="M77.0333 18.3774V27.4921H77.4896C77.5712 27.4869 77.653 27.5004 77.7287 27.5315C77.8044 27.5626 77.872 27.6106 77.9264 27.6717C78.032 27.7941 78.0875 27.9518 78.0817 28.1134C78.0817 28.5259 77.8827 28.7298 77.4896 28.7298H75.2279C75.142 28.7374 75.0555 28.727 74.9738 28.6994C74.8922 28.6717 74.8171 28.6274 74.7536 28.5692C74.69 28.511 74.6392 28.4402 74.6044 28.3613C74.5697 28.2824 74.5518 28.1972 74.5518 28.1109C74.5518 28.0247 74.5697 27.9395 74.6044 27.8606C74.6392 27.7817 74.69 27.7109 74.7536 27.6527C74.8171 27.5945 74.8922 27.5501 74.9738 27.5225C75.0555 27.4949 75.142 27.4845 75.2279 27.4921H75.7132V18.5424H75.2279C75.1379 18.5499 75.0474 18.5368 74.9632 18.504C74.8791 18.4712 74.8036 18.4196 74.7425 18.3531C74.6336 18.2317 74.5732 18.0745 74.5726 17.9114C74.5716 17.8273 74.5883 17.7439 74.6215 17.6666C74.6547 17.5893 74.7038 17.5198 74.7655 17.4626C74.8273 17.4054 74.9003 17.3618 74.98 17.3347C75.0596 17.3075 75.144 17.2973 75.2279 17.3047H79.6299C80.2791 17.2505 80.9271 17.4219 81.4645 17.7901C81.6605 17.9448 81.8181 18.1427 81.925 18.3683C82.0319 18.5939 82.0853 18.8412 82.0809 19.0908C82.0846 19.3446 82.0192 19.5946 81.8916 19.814C81.8284 19.919 81.7374 20.0045 81.6286 20.061C81.5198 20.1176 81.3975 20.1429 81.2752 20.1343C81.1247 20.1305 80.977 20.0933 80.8427 20.0253C80.7083 19.9573 80.5908 19.8602 80.4987 19.7412C80.2839 19.5166 80.1579 19.2217 80.1444 18.9112C80.1247 18.7246 80.1362 18.536 80.1784 18.3531L77.0333 18.3774Z" fill="#B93D43"/>
<path d="M87.1046 26.6864C87.2441 26.5678 87.4213 26.5026 87.6045 26.5026C87.7877 26.5026 87.9649 26.5678 88.1044 26.6864C88.1687 26.7492 88.2188 26.825 88.2515 26.9087C88.2841 26.9924 88.2985 27.0821 88.2937 27.1718C88.2889 27.4119 88.2322 27.6482 88.1274 27.8643C88.0227 28.0804 87.8725 28.2714 87.687 28.424C87.2759 28.7997 86.7343 29 86.1776 28.9821C85.8971 28.9898 85.6182 28.9375 85.3596 28.8287C85.1009 28.7198 84.8685 28.557 84.6779 28.3512C84.4805 28.1437 84.3261 27.8993 84.2236 27.6319C84.1212 27.3645 84.0727 27.0794 84.0809 26.7932V18.5424H83.0568C82.9746 18.5443 82.893 18.5284 82.8176 18.4957C82.7422 18.463 82.6748 18.4143 82.62 18.3531C82.5057 18.2383 82.4412 18.0831 82.4404 17.9211C82.4407 17.8416 82.4566 17.7629 82.4875 17.6896C82.5183 17.6163 82.5633 17.5498 82.62 17.494C82.6748 17.4327 82.7422 17.3841 82.8176 17.3514C82.893 17.3187 82.9746 17.3028 83.0568 17.3047H83.6295C83.7989 17.3289 83.9713 17.291 84.1149 17.1979C84.1946 17.0653 84.2287 16.9102 84.2119 16.7563V15.4701C84.1945 15.3404 84.208 15.2084 84.2514 15.0849C84.2947 14.9614 84.3667 14.8499 84.4613 14.7595C84.556 14.6691 84.6706 14.6024 84.796 14.5648C84.9214 14.5272 85.0538 14.5198 85.1826 14.5431C85.2216 14.5374 85.2613 14.5409 85.2986 14.5532C85.336 14.5656 85.3699 14.5865 85.3977 14.6144C85.4256 14.6422 85.4465 14.6761 85.4589 14.7135C85.4712 14.7508 85.4747 14.7905 85.469 14.8295V17.3047H86.5173C86.6025 17.2973 86.6882 17.3092 86.7681 17.3395C86.848 17.3699 86.9201 17.4178 86.9789 17.4799C87.0377 17.5419 87.0817 17.6165 87.1076 17.6979C87.1336 17.7793 87.1409 17.8656 87.1289 17.9502C87.1303 18.0273 87.1165 18.1038 87.0882 18.1755C87.0598 18.2471 87.0176 18.3124 86.9638 18.3676C86.9008 18.4309 86.8247 18.4798 86.7409 18.5108C86.6571 18.5418 86.5676 18.5542 86.4785 18.5472H85.4204V26.7544C85.4204 27.5018 85.6631 27.8755 86.1582 27.8755C86.6532 27.8755 86.8959 27.6426 86.8959 27.1815C86.8958 27.0892 86.9142 26.9978 86.95 26.9128C86.9859 26.8277 87.0384 26.7508 87.1046 26.6864Z" fill="#B93D43"/>
<path d="M89.0312 18.5424C88.9617 18.538 88.8943 18.5172 88.8344 18.4818C88.7745 18.4463 88.7239 18.3973 88.6866 18.3385C88.589 18.2173 88.5344 18.0671 88.5312 17.9114C88.5327 17.7584 88.5876 17.6108 88.6866 17.494C88.726 17.4386 88.7775 17.3927 88.8372 17.3599C88.8968 17.3271 88.9632 17.3083 89.0312 17.3048H91.8656C91.9337 17.3076 92.0003 17.3261 92.0601 17.3589C92.1199 17.3918 92.1712 17.438 92.2102 17.494C92.3091 17.6108 92.364 17.7584 92.3655 17.9114C92.3624 18.0671 92.3077 18.2173 92.2102 18.3385C92.1731 18.3975 92.1225 18.4468 92.0626 18.4823C92.0027 18.5177 91.9351 18.5383 91.8656 18.5424L91.2006 18.5667L94.3894 25.9439L97.6509 18.5424H97.0685C96.9939 18.5398 96.921 18.52 96.8554 18.4847C96.7897 18.4493 96.7331 18.3993 96.6899 18.3385C96.5857 18.2204 96.5272 18.0689 96.5249 17.9114C96.5246 17.759 96.5778 17.6112 96.6753 17.494C96.7215 17.434 96.7812 17.3856 96.8494 17.3527C96.9177 17.3199 96.9927 17.3034 97.0685 17.3048H99.4515C99.5273 17.3034 99.6023 17.3199 99.6705 17.3527C99.7388 17.3856 99.7984 17.434 99.8446 17.494C99.9435 17.6108 99.9985 17.7584 99.9999 17.9114C99.9959 18.0695 99.9357 18.2209 99.8301 18.3385C99.7869 18.3993 99.7302 18.4493 99.6646 18.4847C99.5989 18.52 99.526 18.5398 99.4515 18.5424H98.8788L94.3554 28.6812C93.6888 30.2246 93.0061 31.1614 92.3072 31.4914C91.8981 31.6784 91.4512 31.7681 91.0017 31.7535C90.7636 31.7621 90.5261 31.7237 90.3029 31.6404C90.0797 31.5572 89.8751 31.4306 89.7009 31.2681C89.5569 31.1537 89.4374 31.0113 89.3499 30.8494C89.2623 30.6876 89.2084 30.5098 89.1913 30.3266C89.1913 29.7247 89.4534 29.419 89.9776 29.419C90.1618 29.4151 90.3442 29.4574 90.5078 29.5422C90.6715 29.627 90.8112 29.7515 90.9143 29.9043C91.1354 30.1836 91.2719 30.5205 91.3074 30.875C91.9772 30.8265 92.6179 30.0887 93.2488 28.6618L93.7002 27.5407L89.8659 18.5667L89.0312 18.5424Z" fill="#B93D43"/>
<path d="M53.5377 45.3528C53.675 45.2406 53.8458 45.1773 54.0231 45.1732C54.1103 45.1762 54.1959 45.1982 54.2739 45.2376C54.3518 45.277 54.4202 45.3328 54.4744 45.4013C54.6022 45.5309 54.6752 45.7047 54.6783 45.8867C54.6783 46.6632 54.1929 47.4576 53.2222 48.2697C52.2611 49.0696 51.046 49.4999 49.7957 49.4831C48.942 49.5015 48.0948 49.3305 47.3152 48.9822C46.5355 48.6339 45.8428 48.1171 45.2869 47.4689C44.0767 46.1294 43.47 44.2171 43.4668 41.7321C43.4636 39.2472 44.0719 37.3058 45.2917 35.908C45.8024 35.263 46.4512 34.7408 47.1903 34.3796C47.9294 34.0185 48.7401 33.8276 49.5627 33.821C50.3456 33.8033 51.1202 33.9836 51.8147 34.3452C52.1118 34.4846 52.3618 34.7076 52.5342 34.9869C52.7066 35.2662 52.7939 35.5896 52.7854 35.9177C52.7904 36.1585 52.7114 36.3936 52.5622 36.5826C52.4717 36.684 52.3587 36.7627 52.2322 36.8124C52.1058 36.8621 51.9694 36.8815 51.8342 36.869C51.6567 36.864 51.482 36.8236 51.3203 36.7503C51.1587 36.677 51.0132 36.5721 50.8926 36.4419C50.7615 36.3293 50.6547 36.1912 50.5788 36.036C50.5028 35.8808 50.4593 35.7117 50.4509 35.5391C50.4734 35.3985 50.5142 35.2615 50.5723 35.1314C50.2211 35.0046 49.8483 34.9485 49.4754 34.9664C48.2523 34.9664 47.1846 35.5925 46.2624 36.8447C45.308 38.21 44.8242 39.849 44.884 41.5137C44.8783 42.5803 45.059 43.6398 45.4179 44.6442C45.7619 45.6213 46.3305 46.504 47.0778 47.2214C47.7265 47.8894 48.6124 48.2748 49.5433 48.294C50.3796 48.3091 51.1984 48.0538 51.8778 47.566C52.5078 47.1312 52.9755 46.4995 53.2077 45.7702C53.2669 45.5975 53.3833 45.4502 53.5377 45.3528Z" fill="#B93D43"/>
<path d="M59.2746 37.5336C59.8706 37.5 60.4664 37.6023 61.0172 37.8326C61.5679 38.063 62.059 38.4155 62.4536 38.8634C63.2295 39.8216 63.6313 41.0288 63.5845 42.2608C63.5386 43.7436 63.6182 45.2275 63.8223 46.6969C63.9055 47.3353 64.2282 47.9182 64.725 48.3276C64.8376 48.3643 64.9366 48.4338 65.0093 48.5272C65.0819 48.6206 65.1249 48.7337 65.1327 48.8518C65.1327 49.2644 64.9434 49.4731 64.56 49.4731C64.3525 49.4636 64.1492 49.4113 63.963 49.3194C63.7767 49.2275 63.6115 49.0981 63.4777 48.9392C63.1207 48.555 62.8421 48.105 62.6575 47.6142C62.3568 48.1692 61.906 48.6283 61.3567 48.9392C60.7068 49.3196 59.9644 49.5127 59.2115 49.4973C58.6749 49.5153 58.1402 49.4243 57.6397 49.23C57.1392 49.0356 56.6833 48.7419 56.2994 48.3665C55.9232 47.9892 55.6287 47.5386 55.4342 47.0426C55.2396 46.5466 55.1492 46.0159 55.1686 45.4835C55.1579 44.9319 55.2576 44.3836 55.4618 43.871C55.666 43.3584 55.9706 42.8918 56.3577 42.4987C56.7349 42.0942 57.193 41.7737 57.7023 41.558C58.2115 41.3422 58.7605 41.2361 59.3134 41.2465C59.8599 41.2314 60.4038 41.3268 60.9125 41.527C61.4212 41.7271 61.8843 42.0279 62.274 42.4113C62.3083 41.4304 62.0607 40.4602 61.5606 39.6157C61.3322 39.2468 61.008 38.9468 60.6225 38.7476C60.237 38.5485 59.8047 38.4577 59.3717 38.4849C58.401 38.4849 57.7652 38.7518 57.5128 39.2905C57.6391 39.5517 57.7117 39.8356 57.7264 40.1253C57.7129 40.3884 57.6121 40.6394 57.44 40.8388C57.3644 40.9556 57.2609 41.0518 57.139 41.1187C57.017 41.1856 56.8802 41.2212 56.7411 41.2222C56.6101 41.2246 56.4807 41.1927 56.3658 41.1297C56.2508 41.0667 56.1544 40.9748 56.0859 40.863C55.9245 40.6168 55.8416 40.3274 55.8481 40.0331C55.8576 39.6846 55.9507 39.3436 56.1196 39.0386C56.2886 38.7337 56.5284 38.4739 56.8188 38.281C57.5305 37.7637 58.3954 37.5005 59.2746 37.5336ZM56.4645 45.3622C56.4542 45.7688 56.5273 46.1732 56.6792 46.5504C56.8311 46.9277 57.0586 47.2699 57.3478 47.5559C57.6203 47.8385 57.9477 48.0622 58.31 48.2133C58.6723 48.3644 59.0617 48.4396 59.4542 48.4344C59.8369 48.4431 60.2172 48.3726 60.5714 48.2273C60.9255 48.082 61.2458 47.865 61.512 47.5899C61.7835 47.3214 61.9974 47.0006 62.1409 46.6468C62.2845 46.293 62.3545 45.9138 62.3468 45.5321V45.3137C62.3605 44.9189 62.2911 44.5257 62.1431 44.1595C61.9951 43.7933 61.7719 43.4623 61.4878 43.1878C61.2103 42.915 60.8809 42.7006 60.5191 42.5572C60.1573 42.4138 59.7704 42.3444 59.3814 42.3531C58.9956 42.3415 58.6115 42.4096 58.2532 42.5533C57.895 42.6969 57.5702 42.9129 57.2992 43.1878C57.0201 43.4748 56.8022 43.8156 56.6587 44.1893C56.5152 44.5631 56.4491 44.9621 56.4645 45.3622Z" fill="#B93D43"/>
<path d="M66.8461 35.2918H66.3608C65.9968 35.2918 65.8123 35.088 65.8123 34.6754C65.8123 34.2629 65.9968 34.0542 66.3608 34.0542H68.8118C69.1758 34.0542 69.3602 34.2629 69.3602 34.6754C69.3602 35.088 69.1758 35.2918 68.8118 35.2918H68.1954V41.8877L71.8355 39.0338H71.3501C71.2792 39.0327 71.2095 39.016 71.1458 38.9849C71.082 38.9539 71.0259 38.9093 70.9812 38.8543C70.8783 38.7342 70.823 38.5805 70.8259 38.4223C70.821 38.2714 70.873 38.1241 70.9715 38.0098C71.0185 37.9576 71.0763 37.9163 71.1408 37.8887C71.2053 37.861 71.2751 37.8477 71.3453 37.8496H74.1797C74.5146 37.8496 74.665 38.0486 74.665 38.4466C74.665 38.8446 74.5 39.0435 74.1797 39.0435H73.4662L71.0395 40.9849L74.9708 48.0079H75.66C75.9949 48.0079 76.1453 48.2117 76.1453 48.6242C76.1453 49.0368 75.9803 49.2455 75.66 49.2455H72.9469C72.5489 49.2455 72.3499 49.0368 72.3499 48.6242C72.3363 48.5419 72.3422 48.4576 72.367 48.3779C72.3919 48.2983 72.4351 48.2256 72.4931 48.1657C72.5512 48.1057 72.6225 48.0602 72.7013 48.0328C72.7801 48.0054 72.8642 47.9969 72.9469 48.0079H73.4711L70.0154 41.7954L68.2099 43.1496V48.003H68.6953C69.0447 48.003 69.2194 48.2068 69.2194 48.6194C69.2194 49.0319 69.0447 49.2406 68.6953 49.2406H66.2685C65.9385 49.2406 65.7832 49.0319 65.7832 48.6194C65.7832 48.2068 65.9531 48.003 66.2685 48.003H66.8898L66.8461 35.2918Z" fill="#B93D43"/>
<path d="M80.6785 49.4974C80.006 49.5163 79.339 49.3727 78.734 49.0786C78.129 48.7846 77.6039 48.3488 77.2034 47.8084C76.292 46.5611 75.8301 45.0419 75.893 43.4985C75.8276 41.9705 76.2771 40.4647 77.1694 39.2226C77.5429 38.7004 78.0384 38.2775 78.6128 37.9907C79.1872 37.7039 79.8231 37.562 80.4649 37.5773C81.1226 37.5725 81.7701 37.7398 82.3432 38.0626C82.8604 38.3361 83.3021 38.7328 83.6294 39.2178C84.2144 39.9876 84.5528 40.9165 84.6 41.8823C84.6 42.3288 84.3962 42.5521 83.9837 42.5521H77.2713C77.2375 42.8436 77.2229 43.1371 77.2277 43.4305C77.1706 44.701 77.5098 45.9577 78.1983 47.0269C78.4557 47.4515 78.8173 47.8033 79.2488 48.0488C79.6803 48.2943 80.1674 48.4254 80.6639 48.4296C81.0778 48.4328 81.4832 48.3128 81.8287 48.085C82.116 47.9141 82.3667 47.6881 82.5664 47.4201C82.7457 47.1406 82.9078 46.8505 83.0518 46.5513C83.1071 46.3955 83.2079 46.26 83.3412 46.1622C83.4745 46.0644 83.634 46.0089 83.7992 46.0029C84.2846 46.0029 84.5175 46.2164 84.5175 46.6435C84.5175 47.2017 84.1632 47.8132 83.4546 48.4878C82.6984 49.177 81.7007 49.5398 80.6785 49.4974ZM82.3189 39.5235C82.0887 39.2511 81.8026 39.0313 81.48 38.879C81.1575 38.7267 80.806 38.6455 80.4493 38.6409C80.0926 38.6363 79.7391 38.7084 79.4127 38.8523C79.0863 38.9962 78.7947 39.2086 78.5575 39.475C78.076 40.0138 77.7255 40.6566 77.5334 41.3533H83.178C83.0936 40.6632 82.7929 40.0175 82.3189 39.509V39.5235Z" fill="#B93D43"/>
<path d="M86.9389 39.6984C86.9389 40.2711 87.51 40.9765 88.6522 41.8145L89.4385 42.4115C89.8801 42.7318 90.2344 43.0036 90.4965 43.2317C90.8306 43.5604 91.1122 43.9386 91.3313 44.3529C91.619 44.8483 91.7713 45.4107 91.773 45.9836C91.7766 46.8693 91.4691 47.7282 90.9042 48.4103C90.6125 48.7679 90.241 49.0521 89.8196 49.2401C89.3981 49.4281 88.9384 49.5146 88.4775 49.4927C87.565 49.5334 86.6649 49.2687 85.9197 48.7404C85.6148 48.5244 85.3671 48.2375 85.1979 47.9043C85.0288 47.5711 84.9434 47.2017 84.949 46.8281C84.9367 46.3883 85.0698 45.9567 85.3276 45.6002C85.4126 45.4566 85.5303 45.3352 85.6712 45.2457C85.812 45.1563 85.972 45.1015 86.1381 45.0857C86.2613 45.0779 86.3846 45.0988 86.4983 45.1468C86.6121 45.1948 86.7131 45.2686 86.7933 45.3624C86.9508 45.5623 87.0317 45.8119 87.0215 46.0661C87.0373 46.3102 86.9934 46.5544 86.8937 46.7776C86.7939 47.0009 86.6411 47.1965 86.4487 47.3474C86.4757 47.5219 86.5452 47.6871 86.651 47.8284C86.7567 47.9697 86.8956 48.0829 87.0554 48.158C87.5023 48.3971 88.005 48.5127 88.5115 48.4928C88.7938 48.5008 89.0743 48.4452 89.3322 48.3301C89.5901 48.215 89.8189 48.0434 90.0015 47.8279C90.357 47.4404 90.5589 46.9365 90.5693 46.4107C90.5811 45.9518 90.4579 45.4995 90.215 45.11C90.0222 44.7976 89.7814 44.5176 89.5016 44.2801C89.2637 44.0859 88.8803 43.7947 88.3561 43.421L87.929 43.1104C87.2987 42.6881 86.7232 42.1893 86.2158 41.6252C85.8274 41.1573 85.6237 40.5634 85.6431 39.9556C85.6368 39.6455 85.6973 39.3377 85.8204 39.053C85.9435 38.7683 86.1263 38.5133 86.3565 38.3055C86.8325 37.8586 87.4657 37.6179 88.1183 37.6357C88.7937 37.6286 89.4535 37.8378 90.0015 38.2327C90.2495 38.3877 90.4552 38.6019 90.6001 38.856C90.7449 39.1101 90.8244 39.3963 90.8314 39.6887C90.8392 39.9306 90.7695 40.1687 90.6324 40.3682C90.5647 40.4574 90.4763 40.5288 90.3748 40.5761C90.2733 40.6235 90.1619 40.6454 90.05 40.64C89.8996 40.6273 89.7539 40.581 89.6237 40.5046C89.4935 40.4282 89.3821 40.3235 89.2977 40.1983C89.0798 39.9745 88.9489 39.6801 88.9289 39.3684C88.9224 39.136 88.9637 38.9047 89.0502 38.6889C88.7894 38.5516 88.494 38.4942 88.2008 38.5239C88.0269 38.51 87.8521 38.5359 87.6898 38.5999C87.5274 38.6638 87.3819 38.764 87.2641 38.8927C87.0584 39.1109 86.9423 39.3985 86.9389 39.6984Z" fill="#B93D43"/>
</svg>
